<mxfile host="www.draw.io" modified="2019-12-20T15:50:26.903Z" agent="Mozilla/5.0 (X11; Linux x86_64) AppleWebKit/537.36 (KHTML, like Gecko) Chrome/79.0.3945.79 Safari/537.36" etag="QhlKkvo-K9PlFspctZ8_" version="12.4.3" type="github" pages="1">
  <diagram id="OTWKd-H9jq7pa2u0-F62" name="Page-1">
    <mxGraphModel dx="1408" dy="738" grid="1" gridSize="10" guides="1" tooltips="1" connect="1" arrows="1" fold="1" page="1" pageScale="1" pageWidth="1100" pageHeight="850" math="0" shadow="0">
      <root>
        <mxCell id="0"/>
        <mxCell id="1" parent="0"/>
        <mxCell id="gd8KSdyaf94JQ_wWg9k3-3" value="Index" style="rounded=1;whiteSpace=wrap;html=1;" parent="1" vertex="1">
          <mxGeometry x="490" y="140" width="120" height="60" as="geometry"/>
        </mxCell>
        <mxCell id="gd8KSdyaf94JQ_wWg9k3-4" value="Application" style="rounded=1;whiteSpace=wrap;html=1;" parent="1" vertex="1">
          <mxGeometry x="490" y="240" width="120" height="60" as="geometry"/>
        </mxCell>
        <mxCell id="gd8KSdyaf94JQ_wWg9k3-5" value="Court Details Container" style="rounded=1;whiteSpace=wrap;html=1;" parent="1" vertex="1">
          <mxGeometry x="350" y="320" width="120" height="60" as="geometry"/>
        </mxCell>
        <mxCell id="gd8KSdyaf94JQ_wWg9k3-6" value="Court List container" style="rounded=1;whiteSpace=wrap;html=1;" parent="1" vertex="1">
          <mxGeometry x="640" y="320" width="120" height="60" as="geometry"/>
        </mxCell>
        <mxCell id="gd8KSdyaf94JQ_wWg9k3-7" value="Court Detail Show" style="rounded=1;whiteSpace=wrap;html=1;" parent="1" vertex="1">
          <mxGeometry x="50" y="420" width="120" height="60" as="geometry"/>
        </mxCell>
        <mxCell id="gd8KSdyaf94JQ_wWg9k3-8" value="Court Chat Show" style="rounded=1;whiteSpace=wrap;html=1;" parent="1" vertex="1">
          <mxGeometry x="240" y="420" width="120" height="60" as="geometry"/>
        </mxCell>
        <mxCell id="gd8KSdyaf94JQ_wWg9k3-9" value="Court list" style="rounded=1;whiteSpace=wrap;html=1;" parent="1" vertex="1">
          <mxGeometry x="510" y="420" width="120" height="60" as="geometry"/>
        </mxCell>
        <mxCell id="gd8KSdyaf94JQ_wWg9k3-12" value="Court Card" style="rounded=1;whiteSpace=wrap;html=1;" parent="1" vertex="1">
          <mxGeometry x="440" y="520" width="120" height="60" as="geometry"/>
        </mxCell>
        <mxCell id="gd8KSdyaf94JQ_wWg9k3-13" value="ActivityLevelFilterList" style="rounded=1;whiteSpace=wrap;html=1;" parent="1" vertex="1">
          <mxGeometry x="810" y="420" width="120" height="60" as="geometry"/>
        </mxCell>
        <mxCell id="gd8KSdyaf94JQ_wWg9k3-18" value="" style="endArrow=classic;html=1;exitX=0.5;exitY=1;exitDx=0;exitDy=0;entryX=0.5;entryY=0;entryDx=0;entryDy=0;" parent="1" source="gd8KSdyaf94JQ_wWg9k3-3" target="gd8KSdyaf94JQ_wWg9k3-4" edge="1">
          <mxGeometry width="50" height="50" relative="1" as="geometry">
            <mxPoint x="370" y="140" as="sourcePoint"/>
            <mxPoint x="420" y="90" as="targetPoint"/>
          </mxGeometry>
        </mxCell>
        <mxCell id="gd8KSdyaf94JQ_wWg9k3-20" value="" style="endArrow=classic;html=1;exitX=0;exitY=0.5;exitDx=0;exitDy=0;entryX=0.5;entryY=0;entryDx=0;entryDy=0;" parent="1" source="gd8KSdyaf94JQ_wWg9k3-4" target="gd8KSdyaf94JQ_wWg9k3-5" edge="1">
          <mxGeometry width="50" height="50" relative="1" as="geometry">
            <mxPoint x="340" y="240" as="sourcePoint"/>
            <mxPoint x="390" y="190" as="targetPoint"/>
            <Array as="points">
              <mxPoint x="420" y="270"/>
            </Array>
          </mxGeometry>
        </mxCell>
        <mxCell id="gd8KSdyaf94JQ_wWg9k3-21" value="" style="endArrow=classic;html=1;exitX=1;exitY=0.5;exitDx=0;exitDy=0;entryX=0.5;entryY=0;entryDx=0;entryDy=0;" parent="1" source="gd8KSdyaf94JQ_wWg9k3-4" target="gd8KSdyaf94JQ_wWg9k3-6" edge="1">
          <mxGeometry width="50" height="50" relative="1" as="geometry">
            <mxPoint x="640" y="270" as="sourcePoint"/>
            <mxPoint x="690" y="220" as="targetPoint"/>
            <Array as="points">
              <mxPoint x="690" y="270"/>
            </Array>
          </mxGeometry>
        </mxCell>
        <mxCell id="gd8KSdyaf94JQ_wWg9k3-22" value="" style="endArrow=classic;html=1;exitX=0;exitY=0.5;exitDx=0;exitDy=0;entryX=0.5;entryY=0;entryDx=0;entryDy=0;" parent="1" source="gd8KSdyaf94JQ_wWg9k3-5" target="gd8KSdyaf94JQ_wWg9k3-7" edge="1">
          <mxGeometry width="50" height="50" relative="1" as="geometry">
            <mxPoint x="50" y="730" as="sourcePoint"/>
            <mxPoint x="120" y="360" as="targetPoint"/>
            <Array as="points">
              <mxPoint x="210" y="350"/>
            </Array>
          </mxGeometry>
        </mxCell>
        <mxCell id="gd8KSdyaf94JQ_wWg9k3-23" value="" style="endArrow=classic;html=1;exitX=1;exitY=0.5;exitDx=0;exitDy=0;entryX=0.5;entryY=0;entryDx=0;entryDy=0;" parent="1" source="gd8KSdyaf94JQ_wWg9k3-6" target="gd8KSdyaf94JQ_wWg9k3-13" edge="1">
          <mxGeometry width="50" height="50" relative="1" as="geometry">
            <mxPoint x="830" y="340" as="sourcePoint"/>
            <mxPoint x="936.96" y="418.02" as="targetPoint"/>
            <Array as="points">
              <mxPoint x="870" y="350"/>
            </Array>
          </mxGeometry>
        </mxCell>
        <mxCell id="gd8KSdyaf94JQ_wWg9k3-24" value="" style="endArrow=classic;html=1;exitX=0.5;exitY=1;exitDx=0;exitDy=0;entryX=0.5;entryY=0;entryDx=0;entryDy=0;" parent="1" source="gd8KSdyaf94JQ_wWg9k3-5" target="gd8KSdyaf94JQ_wWg9k3-8" edge="1">
          <mxGeometry width="50" height="50" relative="1" as="geometry">
            <mxPoint x="50" y="730" as="sourcePoint"/>
            <mxPoint x="100" y="680" as="targetPoint"/>
            <Array as="points">
              <mxPoint x="350" y="400"/>
            </Array>
          </mxGeometry>
        </mxCell>
        <mxCell id="gd8KSdyaf94JQ_wWg9k3-25" value="" style="endArrow=classic;html=1;exitX=0;exitY=0.5;exitDx=0;exitDy=0;entryX=0.5;entryY=0;entryDx=0;entryDy=0;" parent="1" source="gd8KSdyaf94JQ_wWg9k3-6" target="gd8KSdyaf94JQ_wWg9k3-9" edge="1">
          <mxGeometry width="50" height="50" relative="1" as="geometry">
            <mxPoint x="50" y="730" as="sourcePoint"/>
            <mxPoint x="100" y="680" as="targetPoint"/>
          </mxGeometry>
        </mxCell>
        <mxCell id="gd8KSdyaf94JQ_wWg9k3-27" value="" style="endArrow=classic;html=1;exitX=0.5;exitY=1;exitDx=0;exitDy=0;entryX=0.5;entryY=0;entryDx=0;entryDy=0;" parent="1" source="gd8KSdyaf94JQ_wWg9k3-9" target="gd8KSdyaf94JQ_wWg9k3-12" edge="1">
          <mxGeometry width="50" height="50" relative="1" as="geometry">
            <mxPoint x="50" y="730" as="sourcePoint"/>
            <mxPoint x="100" y="680" as="targetPoint"/>
            <Array as="points">
              <mxPoint x="510" y="490"/>
            </Array>
          </mxGeometry>
        </mxCell>
      </root>
    </mxGraphModel>
  </diagram>
</mxfile>
